<?xml version="1.0" encoding="UTF-8" standalone="no"?>
<!-- Created with Inkscape (http://www.inkscape.org/) -->

<svg
   xmlns:dc="http://purl.org/dc/elements/1.1/"
   xmlns:cc="http://creativecommons.org/ns#"
   xmlns:rdf="http://www.w3.org/1999/02/22-rdf-syntax-ns#"
   xmlns:svg="http://www.w3.org/2000/svg"
   xmlns="http://www.w3.org/2000/svg"
   xmlns:inkscape="http://www.inkscape.org/namespaces/inkscape"
   version="1.1"
   width="511pt"
   height="333pt"
   viewBox="0 0 511 333"
   id="svg2">
  <metadata
     id="metadata43">
    <rdf:RDF>
      <cc:Work
         rdf:about="">
        <dc:format>image/svg+xml</dc:format>
        <dc:type
           rdf:resource="http://purl.org/dc/dcmitype/StillImage" />
      </cc:Work>
    </rdf:RDF>
  </metadata>
  <defs
     id="defs41" />
  <g
     id="surface1">
    <path
       d="m 9.962377,56.691888 c 0,5.504129 -4.461674,9.964621 -9.96099564,9.964621 -5.50448836,0 -9.96512936,-4.460492 -9.96512936,-9.964621 0,-5.5 4.460641,-9.960492 9.96512936,-9.960492 5.49932164,0 9.96099564,4.460492 9.96099564,9.960492 z"
       inkscape:connector-curvature="0"
       transform="matrix(3.779586,0,0,-3.784091,59.834623,274.43741)"
       id="path5"
       style="fill:#ff7d7d;fill-opacity:1;fill-rule:nonzero;stroke:#000000;stroke-width:1;stroke-linecap:butt;stroke-linejoin:miter;stroke-miterlimit:10;stroke-opacity:1" />
    <path
       d="m 61.652344,56.613281 c 0.238281,-0.949219 1.121094,-4.4375 3.722656,-4.4375 0.175781,0 1.121094,0 1.886719,0.472657 -1.0625,0.238281 -1.769531,1.125 -1.769531,2.070312 0,0.59375 0.414062,1.300781 1.417968,1.300781 0.824219,0 2.007813,-0.648437 2.007813,-2.1875 0,-1.949219 -2.1875,-2.484375 -3.484375,-2.484375 -2.1875,0 -3.484375,2.011719 -3.957032,2.839844 -0.945312,-2.484375 -2.953124,-2.839844 -4.074218,-2.839844 -3.898438,0 -6.085938,4.851563 -6.085938,5.796875 0,0.414063 0.414063,0.414063 0.472656,0.414063 0.296876,0 0.414063,-0.121094 0.472657,-0.414063 1.300781,-4.023437 3.78125,-4.96875 5.082031,-4.96875 0.707031,0 2.007812,0.355469 2.007812,2.542969 0,1.183594 -0.652343,3.667969 -2.007812,8.988281 -0.59375,2.304688 -1.949219,3.902344 -3.605469,3.902344 -0.234375,0 -1.0625,0 -1.886719,-0.472656 0.941407,-0.238281 1.769532,-1.007813 1.769532,-2.070313 0,-1.003906 -0.828125,-1.300781 -1.359375,-1.300781 -1.179688,0 -2.066407,0.945313 -2.066407,2.1875 0,1.714844 1.832032,2.484375 3.484376,2.484375 2.539062,0 3.898437,-2.660156 3.957031,-2.839844 0.472656,1.359375 1.832031,2.839844 4.074219,2.839844 3.898437,0 6.023437,-4.847656 6.023437,-5.796875 0,-0.414063 -0.292969,-0.414063 -0.410156,-0.414063 -0.355469,0 -0.414063,0.179688 -0.535157,0.414063 -1.238281,4.082031 -3.777343,4.96875 -4.957031,4.96875 -1.476562,0 -2.070312,-1.183594 -2.070312,-2.484375 0,-0.828125 0.179687,-1.65625 0.59375,-3.308594 z"
       inkscape:connector-curvature="0"
       id="path7"
       style="fill:#000000;fill-opacity:1;fill-rule:nonzero;stroke:none" />
    <path
       d="M 9.962377,0.00100976 C 9.962377,5.50101 5.500703,9.961501 0.00138136,9.961501 -5.503107,9.961501 -9.963748,5.50101 -9.963748,0.00100976 c 0,-5.50412876 4.460641,-9.96565276 9.96512936,-9.96565276 5.49932164,0 9.96099564,4.461524 9.96099564,9.96565276 z"
       inkscape:connector-curvature="0"
       transform="matrix(3.779586,0,0,-3.784091,59.834623,274.43741)"
       id="path9"
       style="fill:#ff7d7d;fill-opacity:1;fill-rule:nonzero;stroke:#000000;stroke-width:1;stroke-linecap:butt;stroke-linejoin:miter;stroke-miterlimit:10;stroke-opacity:1" />
    <path
       d="m 68.234375,264.51953 c 0.179687,-0.53125 0.179687,-0.58984 0.179687,-0.88672 0,-0.64844 -0.53125,-1.0039 -1.125,-1.0039 -0.351562,0 -0.941406,0.23437 -1.296874,0.76562 -0.05859,0.23828 -0.414063,1.36328 -0.53125,2.07031 -0.296876,0.94532 -0.53125,2.01172 -0.769532,3.01563 l -1.710937,6.80078 c -0.117188,0.53125 -1.773438,3.19141 -4.253907,3.19141 -1.890624,0 -2.300781,-1.65625 -2.300781,-3.07422 0,-1.71485 0.648438,-4.07813 1.886719,-7.39063 0.59375,-1.53515 0.769531,-1.94922 0.769531,-2.71875 0,-1.65625 -1.179687,-3.07422 -3.070312,-3.07422 -3.601563,0 -4.960938,5.4961 -4.960938,5.79297 0,0.41406 0.355469,0.41406 0.414063,0.41406 0.414062,0 0.414062,-0.11718 0.589844,-0.71093 1.0625,-3.54688 2.539062,-4.66797 3.839843,-4.66797 0.292969,0 0.941407,0 0.941407,1.17969 0,0.94921 -0.410157,1.95312 -0.648438,2.66406 -1.535156,4.01953 -2.183594,6.14844 -2.183594,7.92187 0,3.3711 2.363282,4.49219 4.605469,4.49219 1.476563,0 2.714844,-0.64844 3.78125,-1.71484 -0.472656,1.95312 -0.945313,3.84375 -2.421875,5.85547 -1.003906,1.24218 -2.421875,2.36328 -4.136719,2.36328 -0.53125,0 -2.242187,-0.11719 -2.890625,-1.59766 0.589844,0 1.121094,0 1.59375,-0.47266 0.414063,-0.29296 0.765625,-0.82812 0.765625,-1.53515 0,-1.1836 -1.003906,-1.30078 -1.355469,-1.30078 -0.886718,0 -2.128906,0.58984 -2.128906,2.42187 0,1.89453 1.65625,3.3125 4.015625,3.3125 3.839844,0 7.738281,-3.42969 8.800781,-7.6875 z"
       inkscape:connector-curvature="0"
       id="path11"
       style="fill:#000000;fill-opacity:1;fill-rule:nonzero;stroke:none" />
    <path
       d="m 66.657784,28.348514 c 0,5.5 -4.461674,9.960491 -9.965129,9.960491 -5.500355,0 -9.960996,-4.460491 -9.960996,-9.960491 0,-5.50413 4.460641,-9.965654 9.960996,-9.965654 5.503455,0 9.965129,4.461524 9.965129,9.965654 z"
       inkscape:connector-curvature="0"
       transform="matrix(3.779586,0,0,-3.784091,59.834623,274.43741)"
       id="path13"
       style="fill:#7d7dff;fill-opacity:1;fill-rule:nonzero;stroke:#000000;stroke-width:1;stroke-linecap:butt;stroke-linejoin:miter;stroke-miterlimit:10;stroke-opacity:1" />
    <path
       d="m 275.79687,155.19531 c 0,-0.94531 0,-1.0039 -0.88281,-1.0039 -2.36328,2.42578 -5.67187,2.42578 -6.85156,2.42578 l 0,1.17968 c 0.76562,0 2.95312,0 4.90234,-1.0039 l 0,19.57031 c 0,1.35938 -0.12109,1.77344 -3.48437,1.77344 l -1.1836,0 0,1.18359 c 1.30079,-0.11719 4.54688,-0.11719 6.08594,-0.11719 1.47266,0 4.78125,0 6.08203,0.11719 l 0,-1.18359 -1.18359,0 c -3.42578,0 -3.48438,-0.41406 -3.48438,-1.77344 z"
       inkscape:connector-curvature="0"
       id="path15"
       style="fill:#000000;fill-opacity:1;fill-rule:nonzero;stroke:none" />
    <path
       d="M 9.091126,52.148814 46.973501,33.207466"
       inkscape:connector-curvature="0"
       transform="matrix(3.779586,0,0,-3.784091,59.834623,274.43741)"
       id="path17"
       style="fill:none;stroke:#000000;stroke-width:1;stroke-linecap:butt;stroke-linejoin:miter;stroke-miterlimit:10;stroke-opacity:1" />
    <path
       d="M -1.553254,2.070511 C -1.424249,1.297108 -0.00202451,0.13041 0.386074,0.00129246 0.00108138,-0.130026 -1.42553,-1.293413 -1.554842,-2.074785"
       inkscape:connector-curvature="0"
       transform="matrix(3.380537,1.692208,1.690193,-3.384567,237.36846,148.77684)"
       id="path19"
       style="fill:none;stroke:#000000;stroke-width:0.447245;stroke-linecap:round;stroke-linejoin:round;stroke-miterlimit:10;stroke-opacity:1" />
    <path
       d="m 168.66406,81.777344 c 0,-0.945313 0,-1.003906 -0.88672,-1.003906 -2.36328,2.421874 -5.67187,2.421874 -6.85156,2.421874 l 0,1.183594 c 0.76953,0 2.95313,0 4.90234,-1.003906 l 0,19.57031 c 0,1.35938 -0.11718,1.77344 -3.48437,1.77344 l -1.18359,0 0,1.18359 c 1.30078,-0.11718 4.55078,-0.11718 6.08593,-0.11718 1.47657,0 4.78125,0 6.08203,0.11718 l 0,-1.18359 -1.18359,0 c -3.42187,0 -3.48047,-0.41406 -3.48047,-1.77344 z"
       inkscape:connector-curvature="0"
       id="path21"
       style="fill:#000000;fill-opacity:1;fill-rule:nonzero;stroke:none" />
    <path
       d="m 9.091126,4.543052 37.882375,18.94238"
       inkscape:connector-curvature="0"
       transform="matrix(3.779586,0,0,-3.784091,59.834623,274.43741)"
       id="path23"
       style="fill:none;stroke:#000000;stroke-width:1;stroke-linecap:butt;stroke-linejoin:miter;stroke-miterlimit:10;stroke-opacity:1" />
    <path
       d="M -1.5556,2.073269 C -1.42398,1.296514 7.85279e-4,0.129434 0.387625,0.00180862 -4.74042e-4,-0.127309 -1.422699,-1.294007 -1.554012,-2.072027"
       inkscape:connector-curvature="0"
       transform="matrix(3.380537,-1.692208,-1.690193,-3.384567,237.36846,185.56441)"
       id="path25"
       style="fill:none;stroke:#000000;stroke-width:0.447245;stroke-linecap:round;stroke-linejoin:round;stroke-miterlimit:10;stroke-opacity:1" />
    <path
       d="m 168.66406,189.04297 c 0,-0.94531 0,-1.00781 -0.88672,-1.00781 -2.36328,2.42578 -5.67187,2.42578 -6.85156,2.42578 l 0,1.18359 c 0.76953,0 2.95313,0 4.90234,-1.00781 l 0,19.57422 c 0,1.35937 -0.11718,1.77343 -3.48437,1.77343 l -1.18359,0 0,1.17969 c 1.30078,-0.11719 4.55078,-0.11719 6.08593,-0.11719 1.47657,0 4.78125,0 6.08203,0.11719 l 0,-1.17969 -1.18359,0 c -3.42187,0 -3.48047,-0.41406 -3.48047,-1.77343 z"
       inkscape:connector-curvature="0"
       id="path27"
       style="fill:#000000;fill-opacity:1;fill-rule:nonzero;stroke:none" />
    <path
       d="m 66.669153,28.024377 45.999587,0"
       inkscape:connector-curvature="0"
       transform="matrix(3.779586,0,0,-3.784091,59.834623,274.43741)"
       id="path29"
       style="fill:none;stroke:#000000;stroke-width:1;stroke-linecap:butt;stroke-linejoin:miter;stroke-miterlimit:10;stroke-opacity:1" />
    <path
       d="M -1.554167,2.071449 C -1.424978,1.294141 0.00126919,0.130759 0.387803,0.00172351 0.00126919,-0.131441 -1.424978,-1.295855 -1.554167,-2.073164"
       inkscape:connector-curvature="0"
       transform="matrix(3.779586,0,0,-3.784091,485.71786,167.17058)"
       id="path31"
       style="fill:none;stroke:#000000;stroke-width:1;stroke-linecap:round;stroke-linejoin:round;stroke-miterlimit:10;stroke-opacity:1" />
    <path
       d="m 371.44531,145.08203 c 0.23828,-0.94531 1.125,-4.43359 3.72266,-4.43359 0.17578,0 1.12109,0 1.89062,0.47265 -1.0664,0.23828 -1.77343,1.125 -1.77343,2.07032 0,0.58984 0.41406,1.30078 1.41796,1.30078 0.82813,0 2.00782,-0.64844 2.00782,-2.1875 0,-1.95313 -2.1836,-2.48438 -3.48438,-2.48438 -2.18359,0 -3.48437,2.01172 -3.95703,2.83985 -0.94531,-2.48438 -2.95312,-2.83985 -4.07422,-2.83985 -3.89844,0 -6.08203,4.84766 -6.08203,5.79688 0,0.41406 0.41406,0.41406 0.47266,0.41406 0.29297,0 0.41015,-0.12109 0.47265,-0.41406 1.29688,-4.02344 3.77735,-4.96875 5.07813,-4.96875 0.70703,0 2.00781,0.35547 2.00781,2.54297 0,1.18359 -0.65234,3.66406 -2.00781,8.98828 -0.58985,2.30468 -1.94922,3.90234 -3.60156,3.90234 -0.23829,0 -1.06641,0 -1.89063,-0.47266 0.94531,-0.23828 1.76953,-1.00781 1.76953,-2.07031 0,-1.0039 -0.82422,-1.30078 -1.35547,-1.30078 -1.18359,0 -2.07031,0.94531 -2.07031,2.1875 0,1.71484 1.83203,2.48438 3.48438,2.48438 2.53906,0 3.89843,-2.66016 3.95703,-2.83985 0.47265,1.35938 1.83203,2.83985 4.07812,2.83985 3.89453,0 6.02344,-4.85157 6.02344,-5.79688 0,-0.41406 -0.29688,-0.41406 -0.41406,-0.41406 -0.35547,0 -0.41407,0.17969 -0.53125,0.41406 -1.24219,4.08203 -3.78125,4.96875 -4.96094,4.96875 -1.47656,0 -2.06641,-1.18359 -2.06641,-2.48437 0,-0.82813 0.17578,-1.65625 0.58985,-3.3125 z"
       inkscape:connector-curvature="0"
       id="path33"
       style="fill:#000000;fill-opacity:1;fill-rule:nonzero;stroke:none" />
    <path
       d="m 411.49219,135.44531 c 0.23828,-0.47265 0.29687,-0.58984 0.29687,-0.76953 0,-0.41406 -0.35547,-0.76562 -0.76953,-0.76562 -0.35156,0 -0.58984,0.29296 -0.88281,0.88671 l -8.85938,19.92579 -8.80078,-19.98438 c -0.35156,-0.71094 -0.64844,-0.82812 -0.88672,-0.82812 -0.41015,0 -0.76562,0.35156 -0.76562,0.76562 0,0.12109 0,0.17969 0.23437,0.59375 l 9.39063,21.28516 c 0.29687,0.58984 0.53125,0.76953 0.82812,0.76953 0.53125,0 0.64844,-0.23828 0.82813,-0.76953 z"
       inkscape:connector-curvature="0"
       id="path35"
       style="fill:#000000;fill-opacity:1;fill-rule:nonzero;stroke:none" />
    <path
       d="m 440.53125,142.12891 c 0.17969,-0.53516 0.17969,-0.59375 0.17969,-0.88672 0,-0.65235 -0.53125,-1.00782 -1.125,-1.00782 -0.35157,0 -0.94141,0.23829 -1.29688,0.76954 -0.0586,0.23828 -0.41406,1.35937 -0.53125,2.07031 -0.29687,0.94531 -0.53125,2.00781 -0.76953,3.01562 l -1.71094,6.79688 c -0.11718,0.53515 -1.77343,3.19531 -4.2539,3.19531 -1.89063,0 -2.30078,-1.65625 -2.30078,-3.07422 0,-1.71484 0.64843,-4.08203 1.88671,-7.39062 0.59375,-1.53907 0.76954,-1.95313 0.76954,-2.72266 0,-1.65234 -1.17969,-3.07422 -3.07032,-3.07422 -3.60156,0 -4.96093,5.5 -4.96093,5.79688 0,0.41406 0.35546,0.41406 0.41406,0.41406 0.41406,0 0.41406,-0.12109 0.58984,-0.71094 1.0625,-3.54687 2.53906,-4.67187 3.83985,-4.67187 0.29296,0 0.9414,0 0.9414,1.18359 0,0.94531 -0.41015,1.94922 -0.64844,2.66016 -1.53515,4.01953 -2.18359,6.14843 -2.18359,7.92187 0,3.3711 2.36328,4.4961 4.60547,4.4961 1.47656,0 2.71484,-0.65235 3.78125,-1.71485 -0.47266,1.94922 -0.94531,3.84375 -2.42188,5.85156 -1.0039,1.24219 -2.42187,2.36719 -4.13671,2.36719 -0.53125,0 -2.24219,-0.12109 -2.89063,-1.59765 0.58984,0 1.12109,0 1.59375,-0.47266 0.41406,-0.29688 0.76563,-0.82813 0.76563,-1.53906 0,-1.17969 -1.00391,-1.30078 -1.35547,-1.30078 -0.88672,0 -2.12891,0.59375 -2.12891,2.42578 0,1.89062 1.65625,3.3125 4.01563,3.3125 3.83984,0 7.73828,-3.42969 8.80078,-7.6875 z"
       inkscape:connector-curvature="0"
       id="path37"
       style="fill:#000000;fill-opacity:1;fill-rule:nonzero;stroke:none" />
  </g>
</svg>
